<svg height="121" viewBox="0 0 121 121" width="121" xmlns="http://www.w3.org/2000/svg"><g fill="none" fill-rule="evenodd"><circle cx="60.091883" cy="60.183766" fill="#e6f5fa" r="60"/><path d="m89.3992904 56.5773625v-5.6526541c0-15.1206783-12.5369181-27.4229227-27.9460336-27.4229227-15.4091154 0-27.9460335 12.3022444-27.9460335 27.4229227v5.6495447c-3.5039183.6789435-7.0617868 3.4321109-7.0617868 6.7458237v4.6498178c0 3.8276485 4.741685 6.9109433 8.6677798 6.9109433.8982218 0 1.6250056-.7132033 1.6250056-1.5945877 0-.1027792-.0126913-.2055503-.0317364-.3021026.0285595-.1214598.0507814-.246037.0507814-.376849l.0031688-21.6824068c0-13.3610507 11.0801006-24.2337473 24.6960224-24.2337473 13.6191718 0 24.6960305 10.8695074 24.6960305 24.2337473v21.0908148l-14.2504865 16.4067133h-3.8943259c-.6569816-1.6880306-2.3201017-2.8901903-4.2688084-2.8901903h-4.9765796c-2.5200587 0-4.5703282 2.0118914-4.5703282 4.484778 0 2.4728859 2.0502695 4.4847781 4.5703282 4.4847781h4.9765796c1.9455379 0 3.6086499-1.2021597 4.2688084-2.8901903h4.643291c.4760779 0 .9299094-.2055504 1.2377667-.5606013l14.0538609-16.1794845c3.8911571-.0840906 8.5028417-3.1269068 8.5028417-6.9015352v-4.6498179c-.0031769-3.3106033-3.5451935-6.0575996-7.045943-6.7427143zm-59.9538539 11.3369163v-4.8251517c0-1.4866795 1.9949695-2.9894926 4-3.5873414v12c-2.0050305-.5978985-4-2.097518-4-3.5873415zm34.6133333 23.5875069h-5.2266667c-.7633322 0-1.3866666-.6742807-1.3866666-1.5000005 0-.8257197.6233344-1.4999995 1.3866666-1.4999995h5.2266667c.7633323 0 1.3866667.6742798 1.3866667 1.4999995 0 .829329-.6199979 1.5000005-1.3866667 1.5000005zm29.3866667-23.5848427c0 1.4850912-1.9916024 2.9831033-4 3.5848427v-12c2.0083976.601789 4 2.0998343 4 3.5848426z" fill="#09c"/></g></svg>