<svg height="110" viewBox="0 0 110 110" width="110" xmlns="http://www.w3.org/2000/svg"><g fill="none" fill-rule="evenodd"><circle cx="55" cy="55" fill="#007faa" r="55"/><g transform="translate(14 32)"><rect fill="#007faa" height="30" rx="4" stroke="#fff" stroke-width="2" width="80" x="1" y="10"/><path d="m13.2367205 24.0242215-3.2367205-.9134949.5836709-1.7543252 3.2048839 1.2145329-.159183-3.5709343h1.8995835l-.1591829 3.633218 3.1518229-1.1937716.5730587 1.7854671-3.2897815.9134948 2.1224396 2.7612457-1.5387687 1.100346-1.9101957-2.9896194-1.8889713 2.8961938-1.549381-1.0588235zm13.2263365 0-3.2367205-.9134949.5836709-1.7543252 3.2048839 1.2145329-.159183-3.5709343h1.8995835l-.1591829 3.633218 3.1518229-1.1937716.5730587 1.7854671-3.2897815.9134948 2.1224397 2.7612457-1.5387688 1.100346-1.9101957-2.9896194-1.8889713 2.8961938-1.549381-1.0588235zm13.2263365 0-3.2367205-.9134949.5836709-1.7543252 3.2048839 1.2145329-.159183-3.5709343h1.8995835l-.1591829 3.633218 3.1518229-1.1937716.5730587 1.7854671-3.2897815.9134948 2.1224397 2.7612457-1.5387688 1.100346-1.9101957-2.9896194-1.8889713 2.8961938-1.5493809-1.0588235zm13.2263365 0-3.2367205-.9134949.5836709-1.7543252 3.2048839 1.2145329-.1591829-3.5709343h1.8995835l-.159183 3.633218 3.1518229-1.1937716.5730587 1.7854671-3.2897815.9134948 2.1224397 2.7612457-1.5387688 1.100346-1.9101957-2.9896194-1.8889713 2.8961938-1.5493809-1.0588235zm13.2263365 0-3.2367205-.9134949.5836709-1.7543252 3.2048839 1.2145329-.1591829-3.5709343h1.8995835l-.159183 3.633218 3.1518229-1.1937716.5730587 1.7854671-3.2897815.9134948 2.1224397 2.7612457-1.5387688 1.100346-1.9101957-2.9896194-1.8889713 2.8961938-1.5493809-1.0588235z" fill="#fff"/><path d="m34.6120683 36 14.4361318-5.3832731c1.1736099-.4376423 1.9517999-1.5583671 1.9517999-2.8109209v-23.64564379c0-.34128731-.0582355-.68007241-.1721993-1.00176991-.5532622-1.56175123-2.2678194-2.37929308-3.8295706-1.82603084l-12.9395426 4.58393132h-26.0586875c-1.65685425 0-3 1.34314576-3 3v24.08370722c0 1.6568542 1.34314575 3 3 3z" fill="#007faa" stroke="#fff" stroke-width="2"/></g></g></svg>