<svg height="110" viewBox="0 0 110 110" width="110" xmlns="http://www.w3.org/2000/svg"><g fill="none" fill-rule="evenodd"><circle cx="55" cy="55" fill="#007faa" r="55"/><path d="m56.7453769 48.3743461-3.9361538.0002121v4.3461168h3.9361538zm2.3076923-.0001243v4.3464532h22.6715385v-4.347675zm-8.5515384.0004608-23.1938385.0012499v4.3447425h23.1938385zm5.5861538-3.5522576h-10.3876923c-2.9867692 0-5.5078461-2.534175-5.5078461-5.534175 0-2.964825 2.4188461-5.2881 5.5078461-5.2881 4.6134006 0 7.4970733 4.2257509 8.8929745 6.9998515 1.3968129-2.7740952 4.2819449-7.0000015 8.8953409-7.0000015 3.0889231 0 5.5078461 2.323275 5.5078461 5.2881 0 3-2.521 5.534175-5.5078461 5.534175l.0001461.00015zm.1353846 28.1955v-18.04725h-2.8938461v18.04725zm2.3076923 0h21.1115385v-18.04725h-21.1115385zm-7.5092307 0v-18.04725h-21.1115385v18.04725zm-23.4192308-18.04725h-2.6023v-8.84475h59.0323v8.84475h-2.0823077v20.29725h-54.3476923zm18.0976923-18.72075c-1.7938461 0-3.2001538 1.3359-3.2001538 3.0381 0 1.78125 1.4663077 3.284175 3.2001538 3.284175h7.0973846c-1.0456923-2.258775-3.4375384-6.322275-7.0973846-6.322275zm10.6880769 6.3225h7.1003846c1.7337693 0 3.2001539-1.50585 3.2001539-3.284175 0-1.70505-1.4062308-3.0381-3.2001539-3.0381-3.6718461 0-6.0576923 4.0635-7.1003846 6.322275z" fill="#fff"/></g></svg>