<svg width="58" height="74" xmlns="http://www.w3.org/2000/svg"><g fill="none" fill-rule="evenodd"><path d="M32.415 71.276L28.44 73l-3.356-1.498c-7.158-3.196-13.251-8.465-17.529-15.165C3.278 49.633 1 41.795 1 33.78V16.603L28.603 1 57 16.609v16.74c.013 8.112-2.317 16.044-6.693 22.795-4.375 6.754-10.603 12.02-17.892 15.137v-.005z" stroke-opacity=".5" stroke="#09C" stroke-width="2" fill="#FFF" stroke-linecap="round" stroke-linejoin="round"/><path d="M29 6.19v62.598l-.5.212-2.997-1.311a35.811 35.811 0 0 1-15.65-13.27A36.174 36.174 0 0 1 4 34.685V19.653L28.646 6l.354.19z" fill-opacity=".2" fill="#09C"/><g transform="rotate(-90 37 10.5)" fill="#09C" fill-rule="nonzero"><circle cx="2" cy="2.5" r="2"/><path d="M8.136 3.5c8.067.667 12.31 1 12.728 1 .627 0 3.136 0 3.136-2s-2.509-2-3.136-2c-.419 0-4.661.333-12.728 1C7.51 1.5 7 1.948 7 2.5s.509 1 1.136 1z"/></g></g></svg>
