<svg width="58" height="74" xmlns="http://www.w3.org/2000/svg"><g transform="translate(1 1)" fill="none" fill-rule="evenodd"><path d="M31.415 70.276L27.44 72l-3.356-1.498c-7.158-3.196-13.251-8.465-17.529-15.165C2.278 48.633 0 40.795 0 32.78V15.603L27.603 0 56 15.609v16.74c.013 8.112-2.317 16.044-6.693 22.795-4.375 6.754-10.603 12.02-17.892 15.137v-.005z" stroke-opacity=".5" stroke="#09C" stroke-width="2" fill="#FFF" stroke-linecap="round" stroke-linejoin="round"/><path d="M28 5.19v62.598l-.5.212-2.997-1.311a35.811 35.811 0 0 1-15.65-13.27A36.174 36.174 0 0 1 3 33.685V18.653L27.646 5l.354.19z" fill-opacity=".2" fill="#09C"/><circle fill="#09C" fill-rule="nonzero" cx="17" cy="28" r="2"/><path d="M23.136 29h14.728C38.49 29 39 28.552 39 28s-.509-1-1.136-1H23.136C22.51 27 22 27.448 22 28s.509 1 1.136 1z" fill="#09C" fill-rule="nonzero"/><circle fill="#09C" fill-rule="nonzero" cx="17" cy="36" r="2"/><path d="M23.136 37h14.728C38.49 37 39 36.552 39 36s-.509-1-1.136-1H23.136C22.51 35 22 35.448 22 36s.509 1 1.136 1z" fill="#09C" fill-rule="nonzero"/><circle fill="#09C" fill-rule="nonzero" cx="17" cy="43" r="2"/><path d="M23.136 44h14.728C38.49 44 39 43.552 39 43s-.509-1-1.136-1H23.136C22.51 42 22 42.448 22 43s.509 1 1.136 1z" fill="#09C" fill-rule="nonzero"/></g></svg>
