<svg width="58" height="74" xmlns="http://www.w3.org/2000/svg" xmlns:xlink="http://www.w3.org/1999/xlink"><defs><path d="M-1.626 14.02c-.527-.573-.49-1.427.065-1.933a1.377 1.377 0 0 1 1.936.084l5.06 6.221.53.651L20.354 3.441a1.377 1.377 0 0 1 1.935-.083c.555.505.592 1.36.084 1.911L6.021 23l-7.647-8.98z" id="a"/></defs><g fill="none" fill-rule="evenodd"><path d="M32.415 71.276L28.44 73l-3.356-1.498c-7.158-3.196-13.251-8.465-17.529-15.165C3.278 49.633 1 41.795 1 33.78V16.603L28.603 1 57 16.609v16.74c.013 8.112-2.317 16.044-6.693 22.795-4.375 6.754-10.603 12.02-17.892 15.137v-.005z" stroke-opacity=".5" stroke="#09C" stroke-width="2" fill="#FFF" stroke-linecap="round" stroke-linejoin="round"/><path d="M29 6.19v62.598l-.5.212-2.997-1.311a35.811 35.811 0 0 1-15.65-13.27A36.174 36.174 0 0 1 4 34.685V19.653L28.646 6l.354.19z" fill-opacity=".2" fill="#09C"/><use fill="#09C" fill-rule="nonzero" transform="translate(19.134 24.134)" xlink:href="#a"/></g></svg>
