<svg xmlns="http://www.w3.org/2000/svg" width="111" height="132" viewBox="0 0 111 132">
    <g fill="none" fill-rule="evenodd">
        <path fill="#000" d="M86.588 0H3.6A3.602 3.602 0 0 0 0 3.605v124.79A3.602 3.602 0 0 0 3.6 132h82.988c1.988 0 3.6-1.614 3.6-3.605V3.605A3.602 3.602 0 0 0 86.588 0m0 3.605v124.79H3.6V3.605h82.988"/>
        <path fill="#000" d="M78.047 20.842H12.14a1.736 1.736 0 0 1-1.735-1.737c0-.959.777-1.737 1.735-1.737h65.906c.958 0 1.734.778 1.734 1.737 0 .96-.776 1.737-1.734 1.737M39.215 41.684H12.14a1.736 1.736 0 0 1-1.735-1.737c0-.959.777-1.736 1.735-1.736h65.906a1.736 1.736 0 1 1 0 3.474H39.215zM78.047 62.526H12.14a1.736 1.736 0 0 1-1.735-1.737c0-.959.777-1.736 1.735-1.736h65.906a1.736 1.736 0 1 1 0 3.474M78.047 83.368H12.14a1.736 1.736 0 0 1-1.735-1.736c0-.96.777-1.737 1.735-1.737h65.906c.958 0 1.734.777 1.734 1.737 0 .959-.776 1.736-1.734 1.736M78.047 104.21H12.14a1.736 1.736 0 0 1-1.735-1.736c0-.96.777-1.737 1.735-1.737h65.906c.958 0 1.734.778 1.734 1.737 0 .959-.776 1.737-1.734 1.737"/>
        <path fill="#FFF" d="M88.453 53.842c-11.476 0-20.812-9.35-20.812-20.842 0-11.493 9.336-20.842 20.812-20.842s20.813 9.35 20.813 20.842c0 11.493-9.337 20.842-20.813 20.842"/>
        <path fill="#000" d="M88.453 10.421C76.001 10.421 65.906 20.53 65.906 33s10.095 22.579 22.547 22.579S111 45.47 111 33s-10.095-22.579-22.547-22.579m0 3.474c10.52 0 19.078 8.57 19.078 19.105s-8.558 19.105-19.078 19.105S69.375 43.535 69.375 33s8.558-19.105 19.078-19.105"/>
        <path fill="#8ECAFB" d="M88.42 53.842a20.665 20.665 0 0 1-14.707-6.127 20.72 20.72 0 0 1-6.073-14.747c.018-11.475 9.354-20.81 20.812-20.81 5.593.009 10.816 2.185 14.74 6.127a20.719 20.719 0 0 1 6.073 14.747c-.017 11.475-9.353 20.81-20.811 20.81h-.033z"/>
        <path fill="#000" d="M88.452 10.421c-12.412 0-22.526 10.113-22.546 22.544-.02 12.45 10.08 22.594 22.512 22.614h.036c12.412 0 22.526-10.113 22.546-22.544.019-12.45-10.08-22.594-22.512-22.614h-.036zm0 3.474h.03c10.537.016 19.065 8.583 19.05 19.135-.017 10.541-8.556 19.075-19.078 19.075h-.03c-10.537-.016-19.066-8.584-19.05-19.135.017-10.541 8.556-19.075 19.078-19.075zM17.344 119.842a1.736 1.736 0 0 1-3.469 0c0-.96.776-1.737 1.734-1.737s1.735.778 1.735 1.737M31.219 119.842a1.736 1.736 0 0 1-3.469 0c0-.96.776-1.737 1.734-1.737s1.735.778 1.735 1.737M45.094 119.842a1.736 1.736 0 0 1-3.469 0c0-.96.776-1.737 1.734-1.737s1.735.778 1.735 1.737M58.969 119.842a1.736 1.736 0 0 1-3.469 0c0-.96.776-1.737 1.734-1.737s1.735.778 1.735 1.737M72.844 119.842a1.736 1.736 0 0 1-3.469 0c0-.96.776-1.737 1.734-1.737s1.735.778 1.735 1.737"/>
        <path stroke="#000" stroke-linecap="round" stroke-width="4" d="M98.209 23.23L78.697 42.77M78.697 23.23L98.21 42.77"/>
    </g>
</svg>
