<svg xmlns="http://www.w3.org/2000/svg" width="120" height="107" viewBox="0 0 120 107">
    <g fill="none" fill-rule="evenodd">
        <path fill="#000" fill-rule="nonzero" d="M33.407 9.14l8.343 8.484c.588.6 1.39.937 2.228.939h59.39v84.796H3.132V9.141h30.275M34.718 6H3.132A3.136 3.136 0 0 0 0 9.14v94.22a3.136 3.136 0 0 0 3.132 3.14h100.236a3.136 3.136 0 0 0 3.132-3.14V18.562a3.136 3.136 0 0 0-3.132-3.141h-59.39L34.718 6z"/>
        <path fill="#FFF" fill-rule="nonzero" d="M3.075 105a1.557 1.557 0 0 1-1.187-.533c-.3-.342-.436-.8-.373-1.25l8.972-65.864A1.563 1.563 0 0 1 12.047 36h103.377c.455-.004.889.19 1.189.534.3.344.435.801.372 1.254l-9.363 65.863a1.563 1.563 0 0 1-1.56 1.349H3.075z"/>
        <path fill="#000" fill-rule="nonzero" d="M116.842 37.63l-9.473 65.74H3.159l9.08-65.74h104.603m0-3.13H12.238a3.149 3.149 0 0 0-3.13 2.704L.03 102.943a3.112 3.112 0 0 0 .75 2.484 3.172 3.172 0 0 0 2.38 1.073h104.21a3.15 3.15 0 0 0 3.126-2.688l9.473-65.74a3.112 3.112 0 0 0-.74-2.493 3.17 3.17 0 0 0-2.386-1.079z"/>
        <g fill="#000" fill-rule="nonzero">
            <ellipse cx="1.589" cy="1.604" rx="1.589" ry="1.604" transform="translate(0 9.551)"/>
            <ellipse cx="1.589" cy="1.604" rx="1.589" ry="1.604" transform="translate(6.356 15.968)"/>
            <ellipse cx="1.589" cy="1.604" rx="1.589" ry="1.604" transform="translate(19.068 15.968)"/>
            <ellipse cx="1.589" cy="1.604" rx="1.589" ry="1.604" transform="translate(31.78 15.968)"/>
            <ellipse cx="1.589" cy="1.604" rx="1.589" ry="1.604" transform="translate(0 22.385)"/>
            <ellipse cx="1.589" cy="1.604" rx="1.589" ry="1.604" transform="translate(12.712 22.385)"/>
            <ellipse cx="1.589" cy="1.604" rx="1.589" ry="1.604" transform="translate(6.356 28.802)"/>
            <ellipse cx="1.589" cy="1.604" rx="1.589" ry="1.604" transform="translate(19.068 28.802)"/>
            <g>
                <ellipse cx="1.589" cy="1.604" rx="1.589" ry="1.604" transform="translate(25.424 22.385)"/>
                <ellipse cx="1.589" cy="1.604" rx="1.589" ry="1.604" transform="translate(38.136 22.385)"/>
                <ellipse cx="1.589" cy="1.604" rx="1.589" ry="1.604" transform="translate(31.78 28.802)"/>
                <ellipse cx="1.589" cy="1.604" rx="1.589" ry="1.604" transform="translate(44.492 28.802)"/>
            </g>
            <g>
                <ellipse cx="1.589" cy="1.604" rx="1.589" ry="1.604" transform="translate(50.849 22.385)"/>
                <ellipse cx="1.589" cy="1.604" rx="1.589" ry="1.604" transform="translate(57.205 28.802)"/>
            </g>
        </g>
        <path fill="#8ECAFB" d="M94.515 43.421a20.665 20.665 0 0 1-14.708-6.128 20.72 20.72 0 0 1-6.073-14.746c.018-11.475 9.354-20.81 20.812-20.81 5.592.009 10.816 2.185 14.74 6.127a20.719 20.719 0 0 1 6.073 14.747c-.017 11.475-9.354 20.81-20.811 20.81h-.033z"/>
        <path fill="#000" d="M94.546 0C82.134 0 72.02 10.113 72 22.544c-.02 12.45 10.08 22.594 22.512 22.614h.036c12.412 0 22.526-10.113 22.546-22.544C117.113 10.164 107.014.02 94.582 0h-.036zm0 3.474h.03c10.537.016 19.065 8.583 19.05 19.134-.017 10.542-8.556 19.076-19.078 19.076h-.03C83.98 41.668 75.451 33.1 75.467 22.55c.017-10.541 8.556-19.075 19.078-19.075z"/>
        <path stroke="#000" stroke-linecap="round" stroke-width="3" d="M104.303 12.81L84.79 32.348M84.791 12.81l19.512 19.539"/>
    </g>
</svg>
