<svg xmlns="http://www.w3.org/2000/svg" width="167" height="168" viewBox="0 0 167 168">
  <g fill="none" fill-rule="evenodd" transform="translate(3 4)">
    <circle cx="79.5" cy="79.5" r="56.5" fill="#F2F2F2"/>
    <path fill="#FFF" stroke="#7C7C7C" stroke-linecap="round" stroke-linejoin="round" stroke-width="2" d="M80.0016972,109 C75.0629832,109 71.0203658,104.330954 71,100 L89,100 C88.9796342,104.324192 84.9404111,109 80.0016972,109 Z M104.996719,100 L54,100 L54,95.5938443 L60.2626399,89.1045397 L60.2626399,76.3986455 C60.2626399,66.8503319 65.5181397,59.0040233 75.1630645,57.091732 L75.1630645,55.2352981 C75.1630645,52.9780058 77.0920494,51 79.5032806,51 C81.9112312,51 83.8402161,52.9780058 83.8402161,55.2352981 L83.8402161,57.091732 C93.4818603,59.0040233 98.7373601,66.8503319 98.7373601,76.3986455 L98.7373601,89.1045397 L105,95.5938443 L104.996719,100 Z"/>
    <circle cx="80" cy="80" r="60" stroke="#7C7C7C" stroke-linecap="round" stroke-linejoin="round" stroke-width="2"/>
    <path stroke="#7C7C7C" stroke-dasharray="2 10" stroke-width="7" d="M80.471903,160.137085 C124.654683,160.137085 160.471903,124.319865 160.471903,80.137085 C160.471903,35.954305 124.654683,0.13708499 80.471903,0.13708499 C36.2891231,0.13708499 0.471903042,35.954305 0.471903042,80.137085 C0.471903042,124.319865 36.2891231,160.137085 80.471903,160.137085 Z"/>
  </g>
</svg>
