<svg height="100" viewBox="0 0 100 100" width="100" xmlns="http://www.w3.org/2000/svg" xmlns:xlink="http://www.w3.org/1999/xlink"><defs><circle id="a" cx="50" cy="50" r="50"/><path id="b" d="m52.9443945 78.7275875-3.4273065 1.4448263-2.8932795-1.2557721c-6.1707865-2.6779941-11.4233184-7.0943269-15.1108031-12.7100836-3.6872677-5.6184295-5.6509364-12.1878447-5.6509364-18.9041267v-14.3977089l23.795777-13.0771363 24.4800376 13.0821932v14.0307226c.0112983 6.7980592-1.9975924 13.4462898-5.7696332 19.1042354-3.7719685 5.6607631-9.1405932 10.0740618-15.4240729 12.6870328z"/><mask id="c" fill="#fff"><use fill="#fff" fill-rule="evenodd" xlink:href="#a"/></mask></defs><g fill="none" fill-rule="evenodd"><circle cx="50" cy="50" r="43.103448"/><use fill="#e5f5fc" xlink:href="#a"/><g stroke-linecap="round" stroke-linejoin="round"><g mask="url(#c)"><use fill="#fff" fill-rule="evenodd" xlink:href="#b"/><path d="m53.0007763 80.874271-3.4951508 1.473427-.7848294-.34064-2.8932003-1.2557377c-6.5295361-2.8336841-12.0858528-7.5067788-15.9866625-13.4474132-3.9011133-5.9442742-5.9788643-12.8950848-5.9788643-20.0014757v-15.5807105l25.7824537-14.1689284 26.4933609 14.1581182v1.1988687l-.0000027 14.0273987c.0119544 7.1928511-2.113177 14.2285527-6.1052757 20.2165783-3.9899317 5.9878702-9.6696117 10.658953-16.3204857 13.4247041z" stroke="#fff" stroke-width="4"/><use stroke="#09c" stroke-width="2" xlink:href="#b"/></g><g mask="url(#c)"><g stroke="#09c" stroke-width="2" transform="matrix(.70710678 -.70710678 .70710678 .70710678 32.222223 48.58658)"><path d="m15.8704748 6.67827204-5.5110462.14873828.1487383-5.51104614" transform="matrix(.70710678 .70710678 -.70710678 .70710678 6.720257 -8.081161)"/><path d="m18.9464006 21.4181492c1.8547454-1.854973 2.9952237-4.3768787 2.9952237-7.1552917 0-5.69817599-4.7969491-10.31746032-10.7142857-10.31746032m-7.53777608 2.98515219c-1.96143927 1.86992396-3.17650965 4.46447403-3.17650965 7.33230813 0 5.698176 4.7969491 10.3174603 10.71428573 10.3174603"/><path d="m11.9735767 27.2934304-5.51104616.1487383.14873828-5.5110462" transform="matrix(-.70710678 -.70710678 .70710678 -.70710678 -1.719892 48.660889)"/></g></g></g></g></svg>