<svg xmlns="http://www.w3.org/2000/svg" width="129" height="140" viewBox="0 0 129 140">
  <g fill="none" fill-rule="evenodd" transform="translate(0 1)">
    <circle cx="67.5" cy="59.5" r="56.5" fill="#F2F2F2"/>
    <circle cx="60" cy="60" r="60" stroke="#7C7C7C" stroke-linecap="round" stroke-linejoin="round" stroke-width="2" transform="translate(8)"/>
    <g transform="translate(0 83)">
      <circle cx="28" cy="28" r="28" fill="#FFF"/>
      <g stroke="#7C7C7C" stroke-linecap="round" stroke-linejoin="round" stroke-width="2" transform="rotate(-45 34.636 6.16)">
        <polyline points="19.997 8.415 13.053 8.602 13.24 1.658" transform="rotate(45 16.525 5.13)"/>
        <path d="M23.8724647,26.986868 C26.209444,24.6496021 27.6464466,21.4720009 27.6464466,17.9712004 C27.6464466,10.7914987 21.6022907,4.97120045 14.1464466,4.97120045 M4.64884877,8.73249221 C2.17743529,11.0885964 0.646446609,14.3577295 0.646446609,17.9712004 C0.646446609,25.1509022 6.69060249,30.9712004 14.1464466,30.9712004"/>
        <polyline points="15.087 34.39 8.143 34.577 8.33 27.633" transform="rotate(-135 11.615 31.105)"/>
      </g>
    </g>
    <path fill="#FFF" stroke="#7C7C7C" stroke-linecap="round" stroke-linejoin="round" stroke-width="2" d="M68.0016972,89 C63.0629832,89 59.0203658,84.3309542 59,80 L77,80 C76.9796342,84.3241923 72.9404111,89 68.0016972,89 Z M92.9967194,80 L42,80 L42,75.5938443 L48.2626399,69.1045397 L48.2626399,56.3986455 C48.2626399,46.8503319 53.5181397,39.0040233 63.1630645,37.091732 L63.1630645,35.2352981 C63.1630645,32.9780058 65.0920494,31 67.5032806,31 C69.9112312,31 71.8402161,32.9780058 71.8402161,35.2352981 L71.8402161,37.091732 C81.4818603,39.0040233 86.7373601,46.8503319 86.7373601,56.3986455 L86.7373601,69.1045397 L93,75.5938443 L92.9967194,80 Z"/>
  </g>
</svg>
