<svg height="26" viewBox="0 0 24 26" width="24" xmlns="http://www.w3.org/2000/svg"><g fill="none" fill-rule="evenodd" transform="translate(-7 -6)"><circle cx="19" cy="19" r="19"/><g stroke="#fff" stroke-linecap="round" stroke-linejoin="round" stroke-width="1.5" transform="matrix(.70710678 -.70710678 .70710678 .70710678 1.219127 16.760828)"><path d="m16.9718633 6.60331184-5.4491874.14706877.1470688-5.44918746" transform="matrix(.70710678 .70710678 -.70710678 .70710678 7.01959 -8.895216)"/><path d="m18.7633415 21.2940623c1.8459133-1.8590498 2.9809607-4.3864982 2.9809607-7.1710176 0-5.71069945-4.7741065-10.34013605-10.6632653-10.34013605m-7.50188186 2.99171297c-1.95209909 1.87403368-3.16138342 4.47428608-3.16138342 7.34842308 0 5.7106995 4.77410649 10.3401361 10.66326528 10.3401361"/><path d="m10.5596528 26.9870755-5.44918742.1470688.14706876-5.4491874" transform="matrix(-.70710678 -.70710678 .70710678 -.70710678 -3.884877 47.209933)"/></g></g></svg>