<svg height="200" viewBox="0 0 200 200" width="200" xmlns="http://www.w3.org/2000/svg" xmlns:xlink="http://www.w3.org/1999/xlink"><defs><circle id="a" cx="100" cy="100" r="100"/><path id="b" d="m105.888789 157.455175-6.8546131 2.889653-5.7865589-2.511545c-12.341573-5.355988-22.8466367-14.188653-30.2216061-25.420167-7.3745354-11.236859-11.301873-24.375689-11.301873-37.8082532v-28.7954178l47.5915541-26.1542726 48.960075 26.1643864v28.0614453c.022597 13.5961179-3.995185 26.8925799-11.539266 38.2084709-7.543937 11.321526-18.281187 20.148123-30.848146 25.374065z"/><mask id="c" fill="#fff"><use fill="#fff" fill-rule="evenodd" xlink:href="#a"/></mask></defs><g fill="none" fill-rule="evenodd"><circle cx="100" cy="100" r="86.206897"/><use fill="#e5f5fc" xlink:href="#a"/><g stroke-linecap="round" stroke-linejoin="round"><g mask="url(#c)"><use fill="#fff" fill-rule="evenodd" xlink:href="#b"/><path d="m105.22912 159.903719-6.2064066 2.616393-.7848294-.34064-5.7864797-2.51151c-12.7018779-5.512353-23.5100996-14.60252-31.0974656-26.157497-7.5883123-11.562599-11.6298008-25.082804-11.6298008-38.9056022v-29.9784194l49.5782308-27.2460647 50.9733983 27.2403114v1.1988687l-.000002 28.0581213c.02325 13.9896019-4.110043 27.6737529-11.874909 39.3208139-7.760451 11.646458-18.807788 20.732009-31.744559 26.111737z" stroke="#fff" stroke-width="4"/><use stroke="#09c" stroke-width="2" xlink:href="#b"/></g><path d="m100 61.25-.5847167-12.5s13.9448787 7.4070132 41.8346357 22.2210396l.000081 24.0289604h-11.25" mask="url(#c)" stroke="#e5f5fc" stroke-width="2"/><g mask="url(#c)" stroke="#09c" stroke-width="2"><g transform="translate(78.75 71.25)"><path d="m41.2492361 44.815375c0 3.0810185-2.5180324 5.6018519-5.6018518 5.6018519h-30.04553245c-3.08101852 0-5.60185185-2.5208334-5.60185185-5.6018519v-20.8781019c0-3.0838194 2.52083333-5.6018518 5.60185185-5.6018518h30.04553245c3.0838194 0 5.6018518 2.5180324 5.6018518 5.6018518z"/><path d="m22.917456 29.793169c0 1.2660185-1.0251389 2.2883565-2.2911574 2.2883565-1.2688194 0-2.2939583-1.022338-2.2939583-2.2883565s1.0251389-2.2911574 2.2939583-2.2911574c1.2660185 0 2.2911574 1.0251389 2.2911574 2.2911574z"/><path d="m20.6251782 32.0826458v6.8762732"/><path d="m32.0834861 11.458588v5.9463657"/><path d="m9.16715046 18.0068727v-6.5485648"/><path d="m9.16715046 11.458588c0-6.32449078 5.12849534-11.458588 11.45858794-11.458588 6.3328935 0 11.458588 5.13409722 11.458588 11.458588"/></g></g><path d="m68.75 95-10 .417987c0 11.408085 3.3557697 22.566706 9.6570468 32.11001 6.3016479 9.538763 15.2778498 17.04022 25.8232831 21.588984l4.9444079 2.133019-.4247378-18.75" mask="url(#c)" stroke="#e5f5fc" stroke-width="2"/></g></g></svg>